<svg class="icon icon-cart cutom-icon" xmlns="http://www.w3.org/2000/svg" viewBox="0 0 50 50" xml:space="preserve" width="50" height="50"><path d="m49.517 40.405-4.733-11.546c.061-.112 1.652-10.873 1.652-10.873.051-.806-.306-2.448-2.121-2.448H36.88C36.105 7.99 31.117.025 24.977.025S13.941 7.991 13.176 15.538H6.271c-.714-.041-2.336.745-2.121 2.448l1.428 10.118-5.049 12.3c-2.427 6.405 4.08 9.679 7.65 9.567H41.97c3.753.061 9.781-3.05 7.548-9.567M25.08 4.064c3.345 0 6.956 5.691 7.639 11.474H17.451c.714-5.773 4.294-11.474 7.629-11.474m16.788 15.717-.959 6.375H9.454l-.959-6.375zm0 26.039H8.179c-1.693.051-4.529-1.173-3.723-3.825L9.24 30.307h31.557l4.784 11.688c.928 2.264-1.683 3.825-3.713 3.825"/></svg>