<svg class="icon icon-account custom-icon" width="50" height="50" viewBox="0 0 1 1" xmlns="http://www.w3.org/2000/svg"><path d="M1 .499A.5.5 0 1 0 .177.88l.002.002.028.021.014.011A.5.5 0 0 0 .501 1a.5.5 0 0 0 .28-.086l.014-.01.028-.021.002-.002A.5.5 0 0 0 1 .499M.5.937a.43.43 0 0 1-.251-.08L.254.833A.3.3 0 0 1 .28.771.3.3 0 0 1 .371.68.3.3 0 0 1 .432.655.3.3 0 0 1 .5.646a.26.26 0 0 1 .183.073Q.718.754.737.8q.011.027.015.057A.44.44 0 0 1 .5.937M.347.474A.2.2 0 0 1 .334.41q0-.033.013-.064C.36.315.368.308.383.293S.416.266.436.257.478.244.5.244q.034 0 .064.013c.03.013.038.021.053.036a.2.2 0 0 1 .036.053q.013.03.013.064a.2.2 0 0 1-.013.064.2.2 0 0 1-.036.053.2.2 0 0 1-.053.036.17.17 0 0 1-.129 0A.2.2 0 0 1 .382.527.2.2 0 0 1 .347.474m.464.332L.81.801A.3.3 0 0 0 .767.713.3.3 0 0 0 .699.642.3.3 0 0 0 .634.604L.663.58A.3.3 0 0 0 .702.531.23.23 0 0 0 .735.41.2.2 0 0 0 .717.318.2.2 0 0 0 .666.243a.2.2 0 0 0-.075-.05.2.2 0 0 0-.092-.018.2.2 0 0 0-.092.018.2.2 0 0 0-.075.051.2.2 0 0 0-.05.075.2.2 0 0 0-.018.092q0 .033.009.063a.23.23 0 0 0 .064.107q.013.013.03.024a.3.3 0 0 0-.065.039.4.4 0 0 0-.068.07.3.3 0 0 0-.043.088L.19.807A.436.436 0 0 1 .5.062.44.44 0 0 1 .938.5a.44.44 0 0 1-.127.307"/></svg>